0
SECTION
2
HEADER
9
$INSUNITS
70
4
9
$ACADVER
1
AC1014
9
$HANDSEED
5
FFFF
0
ENDSEC
0
SECTION
2
TABLES
0
TABLE
2
VPORT
5
8
100
AcDbSymbolTable
0
ENDTAB
0
TABLE
2
LTYPE
5
5
100
AcDbSymbolTable
0
LTYPE
5
14
100
AcDbSymbolTableRecord
100
AcDbLinetypeTableRecord
2
BYBLOCK
70
0
0
LTYPE
5
15
100
AcDbSymbolTableRecord
100
AcDbLinetypeTableRecord
2
BYLAYER
70
0
0
ENDTAB
0
TABLE
2
LAYER
5
2
100
AcDbSymbolTable
70
2
0
LAYER
5
50
100
AcDbSymbolTableRecord
100
AcDbLayerTableRecord
2
0
70
0
6
CONTINUOUS
0
ENDTAB
0
TABLE
2
STYLE
5
3
100
AcDbSymbolTable
70
1
0
STYLE
5
11
100
AcDbSymbolTableRecord
100
AcDbTextStyleTableRecord
2
STANDARD
70
0
0
ENDTAB
0
TABLE
2
VIEW
5
6
100
AcDbSymbolTable
70
0
0
ENDTAB
0
TABLE
2
UCS
5
7
100
AcDbSymbolTable
70
0
0
ENDTAB
0
TABLE
2
APPID
5
9
100
AcDbSymbolTable
70
2
0
APPID
5
12
100
AcDbSymbolTableRecord
100
AcDbRegAppTableRecord
2
ACAD
70
0
0
ENDTAB
0
TABLE
2
DIMSTYLE
5
A
100
AcDbSymbolTable
70
1
0
ENDTAB
0
TABLE
2
BLOCK_RECORD
5
1
100
AcDbSymbolTable
70
1
0
BLOCK_RECORD
5
1F
100
AcDbSymbolTableRecord
100
AcDbBlockTableRecord
2
*MODEL_SPACE
0
BLOCK_RECORD
5
1B
100
AcDbSymbolTableRecord
100
AcDbBlockTableRecord
2
*PAPER_SPACE
0
ENDTAB
0
ENDSEC
0
SECTION
2
BLOCKS
0
BLOCK
5
20
100
AcDbEntity
100
AcDbBlockBegin
2
*MODEL_SPACE
0
ENDBLK
5
21
100
AcDbEntity
100
AcDbBlockEnd
0
BLOCK
5
1C
100
AcDbEntity
100
AcDbBlockBegin
2
*PAPER_SPACE
0
ENDBLK
5
1D
100
AcDbEntity
100
AcDbBlockEnd
0
ENDSEC
0
SECTION
2
ENTITIES
0
LWPOLYLINE
5
100
100
AcDbEntity
8
0
100
AcDbPolyline
90
54
70
1
43
0.0
10
9.5007812999999999
20
39.587499999999999
10
17.239843799999999
20
39.587499999999999
10
17.239843800000003
20
41.174999999999997
10
24.978906300000002
20
41.174999999999997
10
24.978906300000002
20
39.587499999999999
10
32.717968800000001
20
39.587500000000006
10
32.717968800000001
20
41.174999999999997
10
40.457031299999997
20
41.174999999999997
10
40.457031299999997
20
39.587499999999999
10
48.1960938
20
39.587500000000006
10
48.1960938
20
41.174999999999997
10
55.935156299999996
20
41.174999999999997
10
55.935156299999996
20
39.587499999999999
10
63.674218800000006
20
39.587500000000006
10
63.674218800000006
20
41.174999999999997
10
73.174999999999997
20
41.174999999999997
10
73.174999999999997
20
33.6960938
10
71.587500000000006
20
33.6960938
10
71.587500000000006
20
25.957031300000001
10
73.174999999999997
20
25.957031300000001
10
73.174999999999983
20
18.2179687
10
71.587500000000006
20
18.217968699999997
10
71.587500000000006
20
10.478906199999997
10
73.174999999999997
20
10.478906199999997
10
73.174999999999997
20
3
10
71.413281299999994
20
3
10
63.674218700000011
20
3
10
63.674218700000011
20
4.5875000000000004
10
55.935156199999994
20
4.5875000000000004
10
55.935156199999994
20
3
10
48.196093700000006
20
3
10
48.196093700000006
20
4.5875000000000004
10
40.457031199999996
20
4.5875000000000004
10
40.457031199999996
20
3
10
32.717968800000001
20
3
10
32.717968800000001
20
4.5875000000000004
10
24.978906200000001
20
4.5875000000000004
10
24.978906200000001
20
3
10
17.239843700000005
20
3
10
17.239843700000002
20
4.5875000000000004
10
9.5007811999999987
20
4.5875000000000004
10
9.5007811999999987
20
3
10
0
20
2.9999999999999991
10
0
20
10.478906199999997
10
1.5874999999999997
20
10.478906199999997
10
1.5874999999999997
20
18.2179687
10
0
20
18.217968699999997
10
0
20
25.957031300000001
10
1.5874999999999997
20
25.957031300000001
10
1.5874999999999997
20
33.6960938
10
0
20
33.6960938
10
0
20
41.174999999999997
10
1.7617188000000006
20
41.174999999999997
10
9.5007813000000017
20
41.174999999999997
0
LWPOLYLINE
5
101
100
AcDbEntity
8
0
100
AcDbPolyline
90
72
70
1
43
0.0
10
208.28515629999998
20
74.587500000000006
10
208.28515629999998
20
76.174999999999997
10
216.02421879999997
20
76.174999999999997
10
216.02421879999997
20
74.587500000000006
10
223.9375
20
74.587500000000006
10
223.9375
20
74.413281299999994
10
223.93749999999997
20
66.674218799999991
10
225.52500000000003
20
66.674218800000006
10
225.52500000000003
20
58.935156200000009
10
223.9375
20
58.935156200000009
10
223.9375
20
51.196093699999999
10
225.52500000000003
20
51.196093699999999
10
225.52500000000003
20
43.457031200000003
10
223.9375
20
43.457031200000003
10
223.9375
20
35.717968799999994
10
225.52500000000003
20
35.717968799999994
10
225.52500000000006
20
27.978906200000001
10
223.9375
20
27.978906200000001
10
223.93749999999997
20
20.239843700000002
10
225.52500000000003
20
20.239843700000002
10
225.52500000000006
20
12.500781199999997
10
223.9375
20
12.500781199999997
10
223.93749999999997
20
4.5875000000000004
10
223.76328130000002
20
4.5875000000000004
10
216.02421879999997
20
4.5875000000000004
10
216.02421879999997
20
3
10
208.28515629999998
20
3
10
208.28515629999998
20
4.5875000000000004
10
200.54609379999999
20
4.5875000000000004
10
200.54609379999999
20
3
10
192.80703130000001
20
3
10
192.80703130000003
20
4.5875000000000004
10
185.06796880000002
20
4.5875000000000004
10
185.06796879999999
20
3
10
177.3289063
20
3
10
177.3289063
20
4.5875000000000004
10
169.58984380000001
20
4.5875000000000004
10
169.58984380000001
20
3
10
161.85078129999999
20
3
10
161.85078129999999
20
4.5875000000000004
10
153.9375
20
4.5875000000000004
10
153.9375
20
4.7617187999999988
10
153.9375
20
12.500781300000002
10
152.34999999999999
20
12.500781300000003
10
152.34999999999999
20
20.239843799999999
10
153.9375
20
20.239843799999999
10
153.9375
20
27.978906300000006
10
152.34999999999999
20
27.978906300000006
10
152.34999999999999
20
35.717968799999994
10
153.9375
20
35.717968799999994
10
153.9375
20
43.457031299999997
10
152.34999999999999
20
43.457031300000004
10
152.34999999999999
20
51.1960938
10
153.9375
20
51.1960938
10
153.9375
20
58.935156299999996
10
152.34999999999999
20
58.935156299999996
10
152.34999999999999
20
66.674218799999991
10
153.9375
20
66.674218799999991
10
153.9375
20
74.587500000000006
10
154.11171880000001
20
74.587500000000006
10
161.85078129999999
20
74.587500000000006
10
161.85078129999999
20
76.174999999999997
10
169.58984380000001
20
76.174999999999997
10
169.58984380000001
20
74.587500000000006
10
177.3289063
20
74.587500000000006
10
177.3289063
20
76.174999999999997
10
185.06796880000002
20
76.174999999999997
10
185.06796879999999
20
74.587500000000006
10
192.80703130000001
20
74.587500000000006
10
192.80703130000001
20
76.174999999999997
10
200.54609379999999
20
76.174999999999997
10
200.54609379999999
20
74.587500000000006
0
LWPOLYLINE
5
102
100
AcDbEntity
8
0
100
AcDbPolyline
90
53
70
1
43
0.0
10
116.63203119999997
20
103.00000000000003
10
108.89296869999998
20
103.00000000000003
10
108.89296869999998
20
104.58750000000002
10
101.15390619999999
20
104.58750000000002
10
101.15390619999999
20
103.00000000000003
10
93.414843700000006
20
103.00000000000003
10
93.414843700000006
20
104.58750000000002
10
85.675781200000003
20
104.58750000000002
10
85.675781200000003
20
103.00000000000003
10
77.762500000000003
20
103.00000000000003
10
77.762500000000003
20
109.90703130000001
10
76.174999999999997
20
109.90703130000001
10
76.174999999999997
20
117.64609380000002
10
77.762500000000003
20
117.64609380000002
10
77.762500000000003
20
125.38515630000001
10
76.174999999999997
20
125.38515630000001
10
76.174999999999997
20
133.12421880000002
10
77.762500000000003
20
133.12421880000002
10
77.762500000000003
20
140.86328130000001
10
76.174999999999997
20
140.86328130000001
10
76.174999999999997
20
148.60234380000003
10
77.762500000000003
20
148.60234380000003
10
77.762500000000003
20
156.34140630000002
10
76.174999999999997
20
156.34140630000002
10
76.174999999999997
20
164.08046880000001
10
77.762500000000003
20
164.08046880000001
10
77.762499999999989
20
170.98750000000001
10
147.76249999999999
20
170.98750000000001
10
147.76249999999999
20
164.08046880000001
10
149.34999999999999
20
164.08046880000001
10
149.34999999999999
20
156.34140630000002
10
147.76249999999999
20
156.34140630000002
10
147.76249999999999
20
148.60234380000003
10
149.34999999999999
20
148.60234380000003
10
149.34999999999999
20
140.86328130000001
10
147.76249999999999
20
140.86328130000001
10
147.76249999999999
20
133.12421880000002
10
149.34999999999999
20
133.12421880000002
10
149.34999999999999
20
125.38515630000001
10
147.76249999999999
20
125.38515630000001
10
147.76249999999999
20
117.64609380000002
10
149.34999999999999
20
117.64609380000002
10
149.34999999999999
20
109.90703130000001
10
147.76249999999999
20
109.90703130000001
10
147.76249999999999
20
103.00000000000003
10
147.58828130000001
20
103.00000000000003
10
139.84921869999999
20
103.00000000000003
10
139.84921869999999
20
104.58750000000002
10
132.11015629999997
20
104.58750000000002
10
132.11015629999997
20
103.00000000000003
10
124.37109380000001
20
103.00000000000003
10
124.37109379999998
20
104.58750000000002
10
116.63203119999997
20
104.58750000000002
0
LWPOLYLINE
5
103
100
AcDbEntity
8
0
100
AcDbPolyline
90
53
70
1
43
0.0
10
1.5874999999999997
20
188.63359380000003
10
0
20
188.63359380000003
10
0
20
196.37265630000002
10
1.5874999999999997
20
196.37265630000002
10
1.5874999999999997
20
204.11171880000001
10
0
20
204.11171880000001
10
0
20
211.85078129999999
10
1.5874999999999997
20
211.85078129999999
10
1.5874999999999997
20
219.58984380000004
10
0
20
219.58984380000004
10
0
20
227.3289063
10
1.5874999999999997
20
227.3289063
10
1.5874999999999997
20
235.06796880000002
10
0
20
235.06796880000002
10
0
20
241.97499999999997
10
73.174999999999997
20
241.97499999999997
10
73.174999999999997
20
235.06796880000002
10
71.587500000000006
20
235.06796880000002
10
71.587500000000006
20
227.3289063
10
73.174999999999997
20
227.32890630000003
10
73.174999999999983
20
219.58984380000004
10
71.587500000000006
20
219.58984380000004
10
71.587500000000006
20
211.85078129999999
10
73.174999999999997
20
211.85078129999999
10
73.174999999999983
20
204.11171880000001
10
71.587500000000006
20
204.11171880000001
10
71.587500000000006
20
196.37265630000002
10
73.174999999999997
20
196.37265630000002
10
73.174999999999983
20
188.63359380000003
10
71.587500000000006
20
188.63359380000003
10
71.587500000000006
20
180.89453130000004
10
73.174999999999997
20
180.89453130000004
10
73.174999999999997
20
173.98750000000001
10
71.413281299999994
20
173.98750000000001
10
63.674218700000011
20
173.98750000000001
10
63.674218700000011
20
175.57500000000002
10
55.935156199999994
20
175.57500000000002
10
55.935156199999994
20
173.98750000000001
10
48.196093700000006
20
173.98750000000001
10
48.196093700000006
20
175.57500000000002
10
40.457031199999996
20
175.57500000000002
10
40.457031199999996
20
173.98750000000001
10
32.717968800000001
20
173.98750000000001
10
32.717968800000001
20
175.57500000000002
10
24.978906200000001
20
175.57500000000002
10
24.978906200000001
20
173.98750000000001
10
17.239843700000005
20
173.98750000000001
10
17.239843700000002
20
175.57500000000002
10
9.5007811999999987
20
175.57500000000002
10
9.5007811999999987
20
173.98750000000001
10
0
20
173.98750000000001
10
0
20
180.89453130000004
10
1.5874999999999997
20
180.89453130000004
0
LWPOLYLINE
5
104
100
AcDbEntity
8
0
100
AcDbPolyline
90
53
70
1
43
0.0
10
77.762500000000003
20
241.97499999999997
10
147.76249999999999
20
241.97499999999997
10
147.76249999999999
20
235.06796880000002
10
149.34999999999999
20
235.06796880000002
10
149.34999999999999
20
227.3289063
10
147.76249999999999
20
227.32890630000003
10
147.76249999999999
20
219.58984380000004
10
149.34999999999999
20
219.58984380000004
10
149.34999999999999
20
211.85078129999999
10
147.76249999999999
20
211.85078129999999
10
147.76249999999999
20
204.11171880000001
10
149.34999999999999
20
204.11171880000001
10
149.34999999999999
20
196.37265630000002
10
147.76249999999999
20
196.37265630000002
10
147.76249999999999
20
188.63359380000003
10
149.34999999999999
20
188.63359380000003
10
149.34999999999999
20
180.89453130000004
10
147.76249999999999
20
180.89453130000004
10
147.76249999999999
20
173.98750000000001
10
147.58828130000001
20
173.98750000000001
10
139.84921869999999
20
173.98750000000001
10
139.84921869999999
20
175.57500000000002
10
132.11015629999997
20
175.57500000000002
10
132.1101563
20
173.98750000000001
10
124.37109380000001
20
173.98750000000001
10
124.37109379999998
20
175.57500000000002
10
116.63203119999997
20
175.57500000000002
10
116.63203119999997
20
173.98750000000001
10
108.89296869999998
20
173.98750000000001
10
108.89296869999998
20
175.57500000000002
10
101.15390619999999
20
175.57500000000002
10
101.15390619999999
20
173.98750000000001
10
93.414843700000006
20
173.98750000000001
10
93.414843700000006
20
175.57500000000002
10
85.675781200000003
20
175.57500000000002
10
85.675781200000003
20
173.98750000000001
10
77.762500000000003
20
173.98750000000001
10
77.762500000000003
20
180.89453130000004
10
76.174999999999997
20
180.89453130000004
10
76.174999999999997
20
188.63359380000003
10
77.762500000000003
20
188.63359380000003
10
77.762500000000003
20
196.37265630000002
10
76.174999999999997
20
196.37265630000002
10
76.174999999999997
20
204.11171880000001
10
77.762500000000003
20
204.11171880000001
10
77.762500000000003
20
211.85078129999999
10
76.174999999999997
20
211.85078129999999
10
76.174999999999997
20
219.58984380000004
10
77.762500000000003
20
219.58984380000004
10
77.762500000000003
20
227.3289063
10
76.174999999999997
20
227.3289063
10
76.174999999999997
20
235.06796880000002
10
77.762500000000003
20
235.06796880000002
0
LWPOLYLINE
5
105
100
AcDbEntity
8
0
100
AcDbPolyline
90
53
70
1
43
0.0
10
77.762500000000003
20
241.97499999999997
10
147.76249999999999
20
241.97499999999997
10
147.76249999999999
20
235.06796880000002
10
149.34999999999999
20
235.06796880000002
10
149.34999999999999
20
227.3289063
10
147.76249999999999
20
227.32890630000003
10
147.76249999999999
20
219.58984380000004
10
149.34999999999999
20
219.58984380000004
10
149.34999999999999
20
211.85078129999999
10
147.76249999999999
20
211.85078129999999
10
147.76249999999999
20
204.11171880000001
10
149.34999999999999
20
204.11171880000001
10
149.34999999999999
20
196.37265630000002
10
147.76249999999999
20
196.37265630000002
10
147.76249999999999
20
188.63359380000003
10
149.34999999999999
20
188.63359380000003
10
149.34999999999999
20
180.89453130000004
10
147.76249999999999
20
180.89453130000004
10
147.76249999999999
20
173.98750000000001
10
147.58828130000001
20
173.98750000000001
10
139.84921869999999
20
173.98750000000001
10
139.84921869999999
20
175.57500000000002
10
132.11015629999997
20
175.57500000000002
10
132.1101563
20
173.98750000000001
10
124.37109380000001
20
173.98750000000001
10
124.37109379999998
20
175.57500000000002
10
116.63203119999997
20
175.57500000000002
10
116.63203119999997
20
173.98750000000001
10
108.89296869999998
20
173.98750000000001
10
108.89296869999998
20
175.57500000000002
10
101.15390619999999
20
175.57500000000002
10
101.15390619999999
20
173.98750000000001
10
93.414843700000006
20
173.98750000000001
10
93.414843700000006
20
175.57500000000002
10
85.675781200000003
20
175.57500000000002
10
85.675781200000003
20
173.98750000000001
10
77.762500000000003
20
173.98750000000001
10
77.762500000000003
20
180.89453130000004
10
76.174999999999997
20
180.89453130000004
10
76.174999999999997
20
188.63359380000003
10
77.762500000000003
20
188.63359380000003
10
77.762500000000003
20
196.37265630000002
10
76.174999999999997
20
196.37265630000002
10
76.174999999999997
20
204.11171880000001
10
77.762500000000003
20
204.11171880000001
10
77.762500000000003
20
211.85078129999999
10
76.174999999999997
20
211.85078129999999
10
76.174999999999997
20
219.58984380000004
10
77.762500000000003
20
219.58984380000004
10
77.762500000000003
20
227.3289063
10
76.174999999999997
20
227.3289063
10
76.174999999999997
20
235.06796880000002
10
77.762500000000003
20
235.06796880000002
0
LWPOLYLINE
5
106
100
AcDbEntity
8
0
100
AcDbPolyline
90
53
70
1
43
0.0
10
1.5874999999999997
20
204.11171880000001
10
0
20
204.11171880000001
10
0
20
211.85078129999999
10
1.5874999999999997
20
211.85078129999999
10
1.5874999999999997
20
219.58984380000004
10
0
20
219.58984380000004
10
0
20
227.3289063
10
1.5874999999999997
20
227.3289063
10
1.5874999999999997
20
235.06796880000002
10
0
20
235.06796880000002
10
0
20
241.97499999999997
10
73.174999999999997
20
241.97499999999997
10
73.174999999999997
20
235.06796880000002
10
71.587500000000006
20
235.06796880000002
10
71.587500000000006
20
227.3289063
10
73.174999999999997
20
227.32890630000003
10
73.174999999999983
20
219.58984380000004
10
71.587500000000006
20
219.58984380000004
10
71.587500000000006
20
211.85078129999999
10
73.174999999999997
20
211.85078129999999
10
73.174999999999983
20
204.11171880000001
10
71.587500000000006
20
204.11171880000001
10
71.587500000000006
20
196.37265630000002
10
73.174999999999997
20
196.37265630000002
10
73.174999999999983
20
188.63359380000003
10
71.587500000000006
20
188.63359380000003
10
71.587500000000006
20
180.89453130000004
10
73.174999999999997
20
180.89453130000004
10
73.174999999999997
20
173.98750000000001
10
71.413281299999994
20
173.98750000000001
10
63.674218700000011
20
173.98750000000001
10
63.674218700000011
20
175.57500000000002
10
55.935156199999994
20
175.57500000000002
10
55.935156199999994
20
173.98750000000001
10
48.196093700000006
20
173.98750000000001
10
48.196093700000006
20
175.57500000000002
10
40.457031199999996
20
175.57500000000002
10
40.457031199999996
20
173.98750000000001
10
32.717968800000001
20
173.98750000000001
10
32.717968800000001
20
175.57500000000002
10
24.978906200000001
20
175.57500000000002
10
24.978906200000001
20
173.98750000000001
10
17.239843700000005
20
173.98750000000001
10
17.239843700000002
20
175.57500000000002
10
9.5007811999999987
20
175.57500000000002
10
9.5007811999999987
20
173.98750000000001
10
0
20
173.98750000000001
10
0
20
180.89453130000004
10
1.5874999999999997
20
180.89453130000004
10
1.5874999999999997
20
188.63359380000003
10
0
20
188.63359380000003
10
0
20
196.37265630000002
10
1.5874999999999997
20
196.37265630000002
0
LWPOLYLINE
5
107
100
AcDbEntity
8
0
100
AcDbPolyline
90
53
70
1
43
0.0
10
71.587500000000006
20
125.38515630000001
10
73.174999999999997
20
125.38515630000001
10
73.174999999999983
20
117.64609380000002
10
71.587500000000006
20
117.64609380000002
10
71.587500000000006
20
109.90703130000001
10
73.174999999999997
20
109.90703130000001
10
73.174999999999997
20
103.00000000000003
10
71.413281299999994
20
103.00000000000003
10
63.674218700000011
20
103.00000000000003
10
63.674218700000011
20
104.58750000000002
10
55.935156199999994
20
104.58750000000002
10
55.935156199999994
20
103.00000000000003
10
48.196093700000006
20
103.00000000000003
10
48.196093700000006
20
104.58750000000002
10
40.457031199999996
20
104.58750000000002
10
40.457031199999996
20
103.00000000000003
10
32.717968800000001
20
103.00000000000003
10
32.717968800000001
20
104.58750000000002
10
24.978906200000001
20
104.58750000000002
10
24.978906200000001
20
103.00000000000003
10
17.239843700000005
20
103.00000000000003
10
17.239843700000005
20
104.58750000000002
10
9.5007811999999987
20
104.58750000000002
10
9.5007811999999987
20
103.00000000000003
10
0
20
103.00000000000003
10
0
20
109.90703130000001
10
1.5874999999999997
20
109.90703130000001
10
1.5874999999999997
20
117.64609380000002
10
0
20
117.64609380000002
10
0
20
125.38515630000001
10
1.5874999999999997
20
125.38515630000001
10
1.5874999999999997
20
133.12421880000002
10
0
20
133.12421880000002
10
0
20
140.86328130000001
10
1.5874999999999997
20
140.86328130000001
10
1.5874999999999997
20
148.60234380000003
10
0
20
148.60234380000003
10
0
20
156.34140630000002
10
1.5874999999999997
20
156.34140630000002
10
1.5874999999999997
20
164.08046880000001
10
0
20
164.08046880000001
10
0
20
170.98750000000001
10
73.174999999999997
20
170.98750000000001
10
73.174999999999997
20
164.08046880000001
10
71.587500000000006
20
164.08046880000001
10
71.587500000000006
20
156.34140630000002
10
73.174999999999997
20
156.34140630000002
10
73.174999999999997
20
148.60234380000003
10
71.587500000000006
20
148.60234380000003
10
71.587500000000006
20
140.86328130000001
10
73.174999999999997
20
140.86328130000001
10
73.174999999999983
20
133.12421880000002
10
71.587500000000006
20
133.12421880000002
0
LWPOLYLINE
5
108
100
AcDbEntity
8
0
100
AcDbPolyline
90
53
70
1
43
0.0
10
0
20
170.98750000000001
10
73.174999999999997
20
170.98750000000001
10
73.174999999999997
20
164.08046880000001
10
71.587500000000006
20
164.08046880000001
10
71.587500000000006
20
156.34140630000002
10
73.174999999999997
20
156.34140630000002
10
73.174999999999997
20
148.60234380000003
10
71.587500000000006
20
148.60234380000003
10
71.587500000000006
20
140.86328130000001
10
73.174999999999997
20
140.86328130000001
10
73.174999999999983
20
133.12421880000002
10
71.587500000000006
20
133.12421880000002
10
71.587500000000006
20
125.38515630000001
10
73.174999999999997
20
125.38515630000001
10
73.174999999999983
20
117.64609380000002
10
71.587500000000006
20
117.64609380000002
10
71.587500000000006
20
109.90703130000001
10
73.174999999999997
20
109.90703130000001
10
73.174999999999997
20
103.00000000000003
10
71.413281299999994
20
103.00000000000003
10
63.674218700000011
20
103.00000000000003
10
63.674218700000011
20
104.58750000000002
10
55.935156199999994
20
104.58750000000002
10
55.935156199999994
20
103.00000000000003
10
48.196093700000006
20
103.00000000000003
10
48.196093700000006
20
104.58750000000002
10
40.457031199999996
20
104.58750000000002
10
40.457031199999996
20
103.00000000000003
10
32.717968800000001
20
103.00000000000003
10
32.717968800000001
20
104.58750000000002
10
24.978906200000001
20
104.58750000000002
10
24.978906200000001
20
103.00000000000003
10
17.239843700000005
20
103.00000000000003
10
17.239843700000005
20
104.58750000000002
10
9.5007811999999987
20
104.58750000000002
10
9.5007811999999987
20
103.00000000000003
10
0
20
103.00000000000003
10
0
20
109.90703130000001
10
1.5874999999999997
20
109.90703130000001
10
1.5874999999999997
20
117.64609380000002
10
0
20
117.64609380000002
10
0
20
125.38515630000001
10
1.5874999999999997
20
125.38515630000001
10
1.5874999999999997
20
133.12421880000002
10
0
20
133.12421880000002
10
0
20
140.86328130000001
10
1.5874999999999997
20
140.86328130000001
10
1.5874999999999997
20
148.60234380000003
10
0
20
148.60234380000003
10
0
20
156.34140630000002
10
1.5874999999999997
20
156.34140630000002
10
1.5874999999999997
20
164.08046880000001
10
0
20
164.08046880000001
0
LWPOLYLINE
5
109
100
AcDbEntity
8
0
100
AcDbPolyline
90
53
70
1
43
0.0
10
85.675781200000003
20
104.58750000000002
10
85.675781200000003
20
103.00000000000003
10
77.762500000000003
20
103.00000000000003
10
77.762500000000003
20
109.90703130000001
10
76.174999999999997
20
109.90703130000001
10
76.174999999999997
20
117.64609380000002
10
77.762500000000003
20
117.64609380000002
10
77.762500000000003
20
125.38515630000001
10
76.174999999999997
20
125.38515630000001
10
76.174999999999997
20
133.12421880000002
10
77.762500000000003
20
133.12421880000002
10
77.762500000000003
20
140.86328130000001
10
76.174999999999997
20
140.86328130000001
10
76.174999999999997
20
148.60234380000003
10
77.762500000000003
20
148.60234380000003
10
77.762500000000003
20
156.34140630000002
10
76.174999999999997
20
156.34140630000002
10
76.174999999999997
20
164.08046880000001
10
77.762500000000003
20
164.08046880000001
10
77.762499999999989
20
170.98750000000001
10
147.76249999999999
20
170.98750000000001
10
147.76249999999999
20
164.08046880000001
10
149.34999999999999
20
164.08046880000001
10
149.34999999999999
20
156.34140630000002
10
147.76249999999999
20
156.34140630000002
10
147.76249999999999
20
148.60234380000003
10
149.34999999999999
20
148.60234380000003
10
149.34999999999999
20
140.86328130000001
10
147.76249999999999
20
140.86328130000001
10
147.76249999999999
20
133.12421880000002
10
149.34999999999999
20
133.12421880000002
10
149.34999999999999
20
125.38515630000001
10
147.76249999999999
20
125.38515630000001
10
147.76249999999999
20
117.64609380000002
10
149.34999999999999
20
117.64609380000002
10
149.34999999999999
20
109.90703130000001
10
147.76249999999999
20
109.90703130000001
10
147.76249999999999
20
103.00000000000003
10
147.58828130000001
20
103.00000000000003
10
139.84921869999999
20
103.00000000000003
10
139.84921869999999
20
104.58750000000002
10
132.11015629999997
20
104.58750000000002
10
132.11015629999997
20
103.00000000000003
10
124.37109380000001
20
103.00000000000003
10
124.37109379999998
20
104.58750000000002
10
116.63203119999997
20
104.58750000000002
10
116.63203119999997
20
103.00000000000003
10
108.89296869999998
20
103.00000000000003
10
108.89296869999998
20
104.58750000000002
10
101.15390619999999
20
104.58750000000002
10
101.15390619999999
20
103.00000000000003
10
93.414843700000006
20
103.00000000000003
10
93.414843700000006
20
104.58750000000002
0
LWPOLYLINE
5
110
100
AcDbEntity
8
0
100
AcDbPolyline
90
4
70
1
43
0.0
10
40.537500000000001
20
29.287500000000005
10
32.637500000000003
20
29.287500000000005
10
32.637500000000003
20
14.887500000000003
10
40.537500000000001
20
14.887500000000003
0
CIRCLE
5
111
100
AcDbEntity
8
0
100
AcDbCircle
10
188.93750000000017
20
17.362500025000127
30
0
40
6.2000000000000011
0
CIRCLE
5
112
100
AcDbEntity
8
0
100
AcDbCircle
10
188.93750000000017
20
61.81250002499992
30
0
40
6.2000000000000011
0
CIRCLE
5
113
100
AcDbEntity
8
0
100
AcDbCircle
10
166.71250000000029
20
39.58750002500004
30
0
40
6.2000000000000011
0
CIRCLE
5
114
100
AcDbEntity
8
0
100
AcDbCircle
10
211.16250000000008
20
39.587500025000018
30
0
40
6.2000000000000011
0
LWPOLYLINE
5
115
100
AcDbEntity
8
0
100
AcDbPolyline
90
72
70
1
43
0.0
10
229.34999999999999
20
43.457031300000004
10
229.34999999999999
20
51.1960938
10
230.9375
20
51.1960938
10
230.9375
20
58.935156299999996
10
229.34999999999999
20
58.935156299999996
10
229.34999999999999
20
66.674218799999991
10
230.9375
20
66.674218799999991
10
230.9375
20
74.587500000000006
10
231.11171880000001
20
74.587500000000006
10
238.85078129999999
20
74.587500000000006
10
238.85078129999999
20
76.174999999999997
10
246.58984379999998
20
76.174999999999997
10
246.58984379999998
20
74.587500000000006
10
254.3289063
20
74.587500000000006
10
254.3289063
20
76.174999999999997
10
262.06796880000002
20
76.174999999999997
10
262.06796880000002
20
74.587500000000006
10
269.80703130000001
20
74.587500000000006
10
269.80703130000001
20
76.174999999999997
10
277.54609379999999
20
76.174999999999997
10
277.54609379999999
20
74.587500000000006
10
285.28515629999998
20
74.587500000000006
10
285.28515629999998
20
76.174999999999997
10
293.02421879999997
20
76.174999999999997
10
293.02421879999997
20
74.587500000000006
10
300.9375
20
74.587500000000006
10
300.9375
20
74.413281299999994
10
300.93749999999994
20
66.674218799999991
10
302.52500000000003
20
66.674218800000006
10
302.52500000000003
20
58.935156200000009
10
300.9375
20
58.935156200000009
10
300.9375
20
51.196093699999999
10
302.52500000000003
20
51.196093699999999
10
302.52500000000003
20
43.457031200000003
10
300.9375
20
43.457031200000003
10
300.9375
20
35.717968799999994
10
302.52500000000003
20
35.717968799999994
10
302.52500000000003
20
27.978906200000001
10
300.9375
20
27.978906200000001
10
300.93749999999994
20
20.239843700000002
10
302.52500000000003
20
20.239843700000002
10
302.52500000000003
20
12.500781199999997
10
300.9375
20
12.500781199999997
10
300.93749999999994
20
4.5875000000000004
10
300.76328130000002
20
4.5875000000000004
10
293.02421879999997
20
4.5875000000000004
10
293.02421879999997
20
3
10
285.28515629999998
20
3
10
285.28515629999998
20
4.5875000000000004
10
277.54609379999999
20
4.5875000000000004
10
277.54609379999999
20
3
10
269.80703130000001
20
3
10
269.80703130000001
20
4.5875000000000004
10
262.06796880000002
20
4.5875000000000004
10
262.06796880000002
20
3
10
254.3289063
20
3
10
254.3289063
20
4.5875000000000004
10
246.58984379999998
20
4.5875000000000004
10
246.58984379999998
20
3
10
238.85078129999999
20
3
10
238.85078129999999
20
4.5875000000000004
10
230.9375
20
4.5875000000000004
10
230.9375
20
4.7617187999999988
10
230.9375
20
12.500781300000002
10
229.34999999999999
20
12.500781300000003
10
229.34999999999999
20
20.239843799999999
10
230.9375
20
20.239843799999999
10
230.9375
20
27.978906300000006
10
229.34999999999999
20
27.978906300000006
10
229.34999999999999
20
35.717968799999994
10
230.9375
20
35.717968799999994
10
230.9375
20
43.457031299999997
0
LWPOLYLINE
5
116
100
AcDbEntity
8
0
100
AcDbPolyline
90
72
70
1
43
0.0
10
169.58984380000001
20
176.17500000000001
10
169.58984380000001
20
174.58750000000003
10
177.3289063
20
174.58750000000003
10
177.3289063
20
176.17500000000001
10
185.06796880000002
20
176.17500000000001
10
185.06796879999999
20
174.58750000000003
10
192.80703130000001
20
174.58750000000003
10
192.80703130000001
20
176.17500000000001
10
200.54609379999999
20
176.17500000000001
10
200.54609379999999
20
174.58750000000003
10
208.28515629999998
20
174.58750000000003
10
208.28515629999998
20
176.17500000000001
10
216.02421879999997
20
176.17500000000001
10
216.02421879999997
20
174.58750000000003
10
223.9375
20
174.58750000000003
10
223.9375
20
174.41328129999999
10
223.93749999999997
20
166.67421880000001
10
225.52500000000003
20
166.67421880000001
10
225.52500000000003
20
158.93515619999999
10
223.9375
20
158.93515619999999
10
223.9375
20
151.19609370000001
10
225.52500000000003
20
151.19609370000001
10
225.52500000000003
20
143.45703119999999
10
223.9375
20
143.45703119999999
10
223.9375
20
135.71796879999999
10
225.52500000000003
20
135.71796879999999
10
225.52500000000006
20
127.97890620000001
10
223.9375
20
127.97890620000001
10
223.93749999999997
20
120.23984370000001
10
225.52500000000003
20
120.23984370000001
10
225.52500000000006
20
112.50078119999999
10
223.9375
20
112.50078119999999
10
223.93749999999997
20
104.58750000000001
10
223.76328130000002
20
104.58750000000001
10
216.02421879999997
20
104.58750000000001
10
216.02421879999997
20
103
10
208.28515629999998
20
103
10
208.28515629999998
20
104.58750000000001
10
200.54609379999999
20
104.58750000000001
10
200.54609379999999
20
103
10
192.80703130000001
20
103
10
192.80703130000003
20
104.58750000000001
10
185.06796880000002
20
104.58750000000001
10
185.06796879999999
20
103
10
177.3289063
20
103
10
177.3289063
20
104.58750000000001
10
169.58984380000001
20
104.58750000000001
10
169.58984380000001
20
103
10
161.85078129999999
20
103
10
161.85078129999999
20
104.58750000000001
10
153.9375
20
104.58750000000001
10
153.9375
20
104.76171879999998
10
153.9375
20
112.5007813
10
152.34999999999999
20
112.5007813
10
152.34999999999999
20
120.2398438
10
153.9375
20
120.2398438
10
153.9375
20
127.97890630000001
10
152.34999999999999
20
127.97890630000001
10
152.34999999999999
20
135.71796879999999
10
153.9375
20
135.71796879999999
10
153.9375
20
143.45703130000001
10
152.34999999999999
20
143.45703130000001
10
152.34999999999999
20
151.1960938
10
153.9375
20
151.1960938
10
153.9375
20
158.93515629999999
10
152.34999999999999
20
158.93515629999999
10
152.34999999999999
20
166.67421880000001
10
153.9375
20
166.67421880000001
10
153.9375
20
174.58750000000003
10
154.11171880000001
20
174.58750000000003
10
161.85078129999999
20
174.58750000000003
10
161.85078129999999
20
176.17500000000001
0
CIRCLE
5
117
100
AcDbEntity
8
0
100
AcDbCircle
10
188.93750000000017
20
117.36250002500013
30
0
40
6.2000000000000011
0
CIRCLE
5
118
100
AcDbEntity
8
0
100
AcDbCircle
10
188.93750000000017
20
161.81250002499993
30
0
40
6.2000000000000011
0
CIRCLE
5
119
100
AcDbEntity
8
0
100
AcDbCircle
10
166.71250000000029
20
139.58750002500005
30
0
40
6.2000000000000011
0
CIRCLE
5
120
100
AcDbEntity
8
0
100
AcDbCircle
10
211.16250000000008
20
139.58750002500003
30
0
40
6.2000000000000011
0
LWPOLYLINE
5
121
100
AcDbEntity
8
0
100
AcDbPolyline
90
4
70
1
43
0.0
10
32.637500000000003
20
56.887500000000003
10
40.537500000000001
20
56.887500000000003
10
40.537500000000001
20
71.287499999999994
10
32.637500000000003
20
71.287499999999994
0
LWPOLYLINE
5
122
100
AcDbEntity
8
0
100
AcDbPolyline
90
54
70
1
43
0.0
10
63.674218700000011
20
45
10
63.674218700000011
20
46.587500000000006
10
55.935156199999994
20
46.587500000000006
10
55.935156199999994
20
45
10
48.196093700000006
20
45
10
48.196093700000006
20
46.587500000000006
10
40.457031199999996
20
46.587500000000006
10
40.457031199999996
20
45
10
32.717968800000001
20
45
10
32.717968800000001
20
46.587500000000006
10
24.978906200000001
20
46.587500000000006
10
24.978906200000001
20
45
10
17.239843700000005
20
45
10
17.239843700000002
20
46.587500000000006
10
9.5007811999999987
20
46.587500000000006
10
9.5007811999999987
20
45
10
0
20
45
10
0
20
52.478906199999997
10
1.5874999999999997
20
52.478906199999997
10
1.5874999999999997
20
60.2179687
10
0
20
60.2179687
10
0
20
67.957031299999997
10
1.5874999999999997
20
67.957031299999997
10
1.5874999999999997
20
75.6960938
10
0
20
75.6960938
10
0
20
83.174999999999983
10
1.7617188000000006
20
83.174999999999983
10
9.5007813000000017
20
83.174999999999983
10
9.5007812999999999
20
81.587499999999991
10
17.239843799999999
20
81.587499999999991
10
17.239843800000003
20
83.174999999999983
10
24.978906300000002
20
83.174999999999983
10
24.978906300000002
20
81.587499999999991
10
32.717968800000001
20
81.587500000000006
10
32.717968800000001
20
83.174999999999983
10
40.457031299999997
20
83.174999999999983
10
40.457031299999997
20
81.587499999999991
10
48.1960938
20
81.587500000000006
10
48.1960938
20
83.174999999999983
10
55.935156299999996
20
83.174999999999983
10
55.935156299999996
20
81.587499999999991
10
63.674218800000006
20
81.587500000000006
10
63.674218800000006
20
83.174999999999983
10
73.174999999999997
20
83.174999999999983
10
73.174999999999997
20
75.6960938
10
71.587500000000006
20
75.6960938
10
71.587500000000006
20
67.957031299999997
10
73.174999999999997
20
67.957031299999997
10
73.174999999999983
20
60.2179687
10
71.587500000000006
20
60.2179687
10
71.587500000000006
20
52.478906199999997
10
73.174999999999997
20
52.478906199999997
10
73.174999999999997
20
45
10
71.413281299999994
20
45
0
LINE
5
123
100
AcDbEntity
8
0
100
AcDbLine
10
108.71796880000002
20
45
30
0
11
116.4570312
21
45
31
0
0
LINE
5
124
100
AcDbEntity
8
0
100
AcDbLine
10
93.239843700000023
20
45
30
0
11
100.97890620000001
21
45
31
0
0
LINE
5
125
100
AcDbEntity
8
0
100
AcDbLine
10
100.97890620000001
20
46.587500000000006
30
0
11
108.71796880000002
21
46.587500000000006
31
0
0
LINE
5
126
100
AcDbEntity
8
0
100
AcDbLine
10
108.71796880000002
20
46.587500000000006
30
0
11
108.71796880000002
21
45
31
0
0
LINE
5
127
100
AcDbEntity
8
0
100
AcDbLine
10
100.97890620000001
20
45
30
0
11
100.97890620000001
21
46.587500000000006
31
0
0
LWPOLYLINE
5
128
100
AcDbEntity
8
0
100
AcDbPolyline
90
4
70
1
43
0.0
10
108.63749999999999
20
71.287499999999994
10
108.63749999999999
20
56.887500000000003
10
116.53750000000001
20
56.887500000000003
10
116.53750000000001
20
71.287499999999994
0
LINE
5
129
100
AcDbEntity
8
0
100
AcDbLine
10
131.93515619999999
20
46.587500000000006
30
0
11
139.67421870000004
21
46.587500000000006
31
0
0
LINE
5
130
100
AcDbEntity
8
0
100
AcDbLine
10
116.4570312
20
46.587500000000006
30
0
11
124.19609370000001
21
46.587500000000006
31
0
0
LINE
5
131
100
AcDbEntity
8
0
100
AcDbLine
10
124.19609370000001
20
46.587500000000006
30
0
11
124.19609370000001
21
45
31
0
0
LINE
5
132
100
AcDbEntity
8
0
100
AcDbLine
10
116.4570312
20
45
30
0
11
116.4570312
21
46.587500000000006
31
0
0
LINE
5
133
100
AcDbEntity
8
0
100
AcDbLine
10
124.19609370000001
20
45
30
0
11
131.93515619999999
21
45
31
0
0
LINE
5
134
100
AcDbEntity
8
0
100
AcDbLine
10
131.93515619999999
20
45
30
0
11
131.93515619999999
21
46.587500000000006
31
0
0
LINE
5
135
100
AcDbEntity
8
0
100
AcDbLine
10
85.500781200000006
20
45
30
0
11
85.500781200000006
21
46.587500000000006
31
0
0
LINE
5
136
100
AcDbEntity
8
0
100
AcDbLine
10
85.500781200000006
20
46.587500000000006
30
0
11
93.239843700000023
21
46.587500000000006
31
0
0
LINE
5
137
100
AcDbEntity
8
0
100
AcDbLine
10
77.587500000000006
20
67.957031299999997
30
0
11
76
21
67.957031299999997
31
0
0
LINE
5
138
100
AcDbEntity
8
0
100
AcDbLine
10
76
20
75.6960938
30
0
11
77.587500000000006
21
75.6960938
31
0
0
LINE
5
139
100
AcDbEntity
8
0
100
AcDbLine
10
76
20
60.2179687
30
0
11
77.587500000000006
21
60.2179687
31
0
0
LINE
5
140
100
AcDbEntity
8
0
100
AcDbLine
10
77.587500000000006
20
52.478906199999997
30
0
11
76
21
52.478906199999997
31
0
0
LINE
5
141
100
AcDbEntity
8
0
100
AcDbLine
10
93.239843700000023
20
46.587500000000006
30
0
11
93.239843700000023
21
45
31
0
0
LINE
5
142
100
AcDbEntity
8
0
100
AcDbLine
10
124.1960938
20
81.587500000000006
30
0
11
116.45703130000001
21
81.587499999999991
31
0
0
LINE
5
143
100
AcDbEntity
8
0
100
AcDbLine
10
139.67421880000001
20
81.587500000000006
30
0
11
131.93515630000002
21
81.587499999999991
31
0
0
LINE
5
144
100
AcDbEntity
8
0
100
AcDbLine
10
124.1960938
20
83.174999999999983
30
0
11
124.1960938
21
81.587500000000006
31
0
0
LINE
5
145
100
AcDbEntity
8
0
100
AcDbLine
10
131.93515630000002
20
83.174999999999983
30
0
11
124.1960938
21
83.174999999999983
31
0
0
LINE
5
146
100
AcDbEntity
8
0
100
AcDbLine
10
131.93515630000002
20
81.587499999999991
30
0
11
131.93515630000002
21
83.174999999999983
31
0
0
LINE
5
147
100
AcDbEntity
8
0
100
AcDbLine
10
116.45703130000001
20
83.174999999999983
30
0
11
108.71796880000002
21
83.174999999999983
31
0
0
LINE
5
148
100
AcDbEntity
8
0
100
AcDbLine
10
116.45703130000001
20
81.587499999999991
30
0
11
116.45703130000001
21
83.174999999999983
31
0
0
LINE
5
149
100
AcDbEntity
8
0
100
AcDbLine
10
108.71796880000002
20
81.587500000000006
30
0
11
100.97890630000001
21
81.587499999999991
31
0
0
LINE
5
150
100
AcDbEntity
8
0
100
AcDbLine
10
93.239843800000003
20
83.174999999999983
30
0
11
93.239843800000003
21
81.587499999999991
31
0
0
LINE
5
151
100
AcDbEntity
8
0
100
AcDbLine
10
85.500781300000014
20
81.587499999999991
30
0
11
85.500781300000014
21
83.174999999999983
31
0
0
LINE
5
152
100
AcDbEntity
8
0
100
AcDbLine
10
100.97890630000001
20
81.587499999999991
30
0
11
100.97890630000001
21
83.174999999999983
31
0
0
LINE
5
153
100
AcDbEntity
8
0
100
AcDbLine
10
108.71796880000002
20
83.174999999999983
30
0
11
108.71796880000002
21
81.587500000000006
31
0
0
LINE
5
154
100
AcDbEntity
8
0
100
AcDbLine
10
100.97890630000001
20
83.174999999999983
30
0
11
93.239843800000003
21
83.174999999999983
31
0
0
LINE
5
155
100
AcDbEntity
8
0
100
AcDbLine
10
93.239843800000003
20
81.587499999999991
30
0
11
85.500781300000014
21
81.587499999999991
31
0
0
LINE
5
156
100
AcDbEntity
8
0
100
AcDbLine
10
76
20
60.2179687
30
0
11
76
21
52.478906199999997
31
0
0
LINE
5
157
100
AcDbEntity
8
0
100
AcDbLine
10
76
20
67.957031299999997
30
0
11
76
21
75.6960938
31
0
0
LINE
5
158
100
AcDbEntity
8
0
100
AcDbLine
10
77.587500000000006
20
45
30
0
11
85.500781200000006
21
45
31
0
0
LINE
5
159
100
AcDbEntity
8
0
100
AcDbLine
10
77.587500000000006
20
83.174999999999983
30
0
11
85.500781300000014
21
83.174999999999983
31
0
0
LINE
5
160
100
AcDbEntity
8
0
100
AcDbLine
10
77.587500000000006
20
83.174999999999983
30
0
11
77.587500000000006
21
75.6960938
31
0
0
LINE
5
161
100
AcDbEntity
8
0
100
AcDbLine
10
77.587500000000006
20
67.957031299999997
30
0
11
77.587500000000006
21
60.2179687
31
0
0
LINE
5
162
100
AcDbEntity
8
0
100
AcDbLine
10
77.587500000000006
20
52.478906199999997
30
0
11
77.587500000000006
21
45
31
0
0
LINE
5
163
100
AcDbEntity
8
0
100
AcDbLine
10
147.58750010000003
20
83.174999908316934
30
0
11
139.67421880000001
21
83.174999929045896
31
0
0
LINE
5
164
100
AcDbEntity
8
0
100
AcDbLine
10
147.58750000000001
20
44.999999908316951
30
0
11
139.67421880000001
21
44.999999929045913
31
0
0
LINE
5
165
100
AcDbEntity
8
0
100
AcDbLine
10
139.67421879584154
20
81.587499929045904
30
0
11
139.67421880000001
21
83.174999929045896
31
0
0
LINE
5
166
100
AcDbEntity
8
0
100
AcDbLine
10
139.67421880000001
20
44.999999929045913
30
0
11
139.6742188041585
21
46.587499929045926
31
0
0
LINE
5
167
100
AcDbEntity
8
0
100
AcDbLine
10
147.58750001959112
20
52.478906108316949
30
0
11
147.58750000000001
21
44.999999908316951
31
0
0
LINE
5
168
100
AcDbEntity
8
0
100
AcDbLine
10
147.58750006013631
20
67.957031208316948
30
0
11
147.5875000398637
21
60.217968608316959
31
0
0
LINE
5
169
100
AcDbEntity
8
0
100
AcDbLine
10
147.58750010000003
20
83.174999908316934
30
0
11
147.58750008040892
21
75.696093708316965
31
0
0
LINE
5
170
100
AcDbEntity
8
0
100
AcDbLine
10
149.17500006013631
20
67.957031204158469
30
0
11
149.17500008040892
21
75.696093704158471
31
0
0
LINE
5
171
100
AcDbEntity
8
0
100
AcDbLine
10
149.17500003986373
20
60.217968604158472
30
0
11
149.17500001959112
21
52.478906104158476
31
0
0
LINE
5
172
100
AcDbEntity
8
0
100
AcDbLine
10
147.58750001959112
20
52.478906108316949
30
0
11
149.17500001959112
21
52.478906104158476
31
0
0
LINE
5
173
100
AcDbEntity
8
0
100
AcDbLine
10
149.17500003986373
20
60.217968604158472
30
0
11
147.5875000398637
21
60.217968608316959
31
0
0
LINE
5
174
100
AcDbEntity
8
0
100
AcDbLine
10
149.17500008040892
20
75.696093704158471
30
0
11
147.58750008040892
21
75.696093708316965
31
0
0
LINE
5
175
100
AcDbEntity
8
0
100
AcDbLine
10
147.58750006013631
20
67.957031208316948
30
0
11
149.17500006013631
21
67.957031204158469
31
0
0
LWPOLYLINE
5
176
100
AcDbEntity
8
0
100
AcDbPolyline
90
4
70
1
43
0.0
10
108.63749999999999
20
29.287500000000001
10
108.63749999999999
20
14.887500000000005
10
116.53750000000001
20
14.887500000000005
10
116.53750000000001
20
29.287500000000001
0
LINE
5
177
100
AcDbEntity
8
0
100
AcDbLine
10
124.1960938
20
39.587500000000013
30
0
11
116.45703130000001
21
39.587499999999991
31
0
0
LINE
5
178
100
AcDbEntity
8
0
100
AcDbLine
10
139.67421880000001
20
39.587500000000013
30
0
11
131.93515630000002
21
39.587499999999991
31
0
0
LINE
5
179
100
AcDbEntity
8
0
100
AcDbLine
10
124.1960938
20
41.17499999999999
30
0
11
124.1960938
21
39.587500000000013
31
0
0
LINE
5
180
100
AcDbEntity
8
0
100
AcDbLine
10
131.93515630000002
20
41.17499999999999
30
0
11
124.1960938
21
41.17499999999999
31
0
0
LINE
5
181
100
AcDbEntity
8
0
100
AcDbLine
10
131.93515630000002
20
39.587499999999991
30
0
11
131.93515630000002
21
41.17499999999999
31
0
0
LINE
5
182
100
AcDbEntity
8
0
100
AcDbLine
10
116.45703130000001
20
41.17499999999999
30
0
11
108.71796880000002
21
41.17499999999999
31
0
0
LINE
5
183
100
AcDbEntity
8
0
100
AcDbLine
10
116.45703130000001
20
39.587499999999991
30
0
11
116.45703130000001
21
41.17499999999999
31
0
0
LINE
5
184
100
AcDbEntity
8
0
100
AcDbLine
10
108.71796880000002
20
39.587500000000013
30
0
11
100.97890630000001
21
39.587499999999991
31
0
0
LINE
5
185
100
AcDbEntity
8
0
100
AcDbLine
10
108.71796880000002
20
41.17499999999999
30
0
11
108.71796880000002
21
39.587500000000013
31
0
0
LINE
5
186
100
AcDbEntity
8
0
100
AcDbLine
10
147.58750010000003
20
41.174999908316934
30
0
11
139.67421880000001
21
41.174999929045903
31
0
0
LINE
5
187
100
AcDbEntity
8
0
100
AcDbLine
10
139.67421879584154
20
39.587499929045904
30
0
11
139.67421880000001
21
41.174999929045903
31
0
0
LINE
5
188
100
AcDbEntity
8
0
100
AcDbLine
10
147.58750006013631
20
25.957031208316952
30
0
11
147.5875000398637
21
18.217968608316959
31
0
0
LINE
5
189
100
AcDbEntity
8
0
100
AcDbLine
10
147.58750010000003
20
41.174999908316934
30
0
11
147.58750008040892
21
33.696093708316958
31
0
0
LINE
5
190
100
AcDbEntity
8
0
100
AcDbLine
10
149.17500006013631
20
25.957031204158465
30
0
11
149.17500008040892
21
33.696093704158471
31
0
0
LINE
5
191
100
AcDbEntity
8
0
100
AcDbLine
10
149.17500003986373
20
18.217968604158472
30
0
11
149.17500001959112
21
10.478906104158474
31
0
0
LINE
5
192
100
AcDbEntity
8
0
100
AcDbLine
10
149.17500003986373
20
18.217968604158472
30
0
11
147.5875000398637
21
18.217968608316959
31
0
0
LINE
5
193
100
AcDbEntity
8
0
100
AcDbLine
10
149.17500008040892
20
33.696093704158471
30
0
11
147.58750008040892
21
33.696093708316958
31
0
0
LINE
5
194
100
AcDbEntity
8
0
100
AcDbLine
10
147.58750006013631
20
25.957031208316952
30
0
11
149.17500006013631
21
25.957031204158465
31
0
0
LINE
5
195
100
AcDbEntity
8
0
100
AcDbLine
10
108.71796880000002
20
2.9999999999999982
30
0
11
116.4570312
21
2.9999999999999982
31
0
0
LINE
5
196
100
AcDbEntity
8
0
100
AcDbLine
10
100.97890620000001
20
4.5875000000000021
30
0
11
108.71796880000002
21
4.5875000000000021
31
0
0
LINE
5
197
100
AcDbEntity
8
0
100
AcDbLine
10
108.71796880000002
20
4.5875000000000021
30
0
11
108.71796880000002
21
2.9999999999999982
31
0
0
LINE
5
198
100
AcDbEntity
8
0
100
AcDbLine
10
131.93515619999999
20
4.5875000000000021
30
0
11
139.67421870000004
21
4.5875000000000021
31
0
0
LINE
5
199
100
AcDbEntity
8
0
100
AcDbLine
10
116.4570312
20
4.5875000000000021
30
0
11
124.19609370000001
21
4.5875000000000021
31
0
0
LINE
5
200
100
AcDbEntity
8
0
100
AcDbLine
10
124.19609370000001
20
4.5875000000000021
30
0
11
124.19609370000001
21
2.9999999999999982
31
0
0
LINE
5
201
100
AcDbEntity
8
0
100
AcDbLine
10
116.4570312
20
2.9999999999999982
30
0
11
116.4570312
21
4.5875000000000021
31
0
0
LINE
5
202
100
AcDbEntity
8
0
100
AcDbLine
10
124.19609370000001
20
2.9999999999999982
30
0
11
131.93515619999999
21
2.9999999999999982
31
0
0
LINE
5
203
100
AcDbEntity
8
0
100
AcDbLine
10
131.93515619999999
20
2.9999999999999982
30
0
11
131.93515619999999
21
4.5875000000000021
31
0
0
LINE
5
204
100
AcDbEntity
8
0
100
AcDbLine
10
147.58750000000001
20
2.999999908316946
30
0
11
139.67421880000001
21
2.9999999290459112
31
0
0
LINE
5
205
100
AcDbEntity
8
0
100
AcDbLine
10
139.67421880000001
20
2.9999999290459112
30
0
11
139.6742188041585
21
4.587499929045924
31
0
0
LINE
5
206
100
AcDbEntity
8
0
100
AcDbLine
10
147.58750001959112
20
10.478906108316943
30
0
11
147.58750000000001
21
2.999999908316946
31
0
0
LINE
5
207
100
AcDbEntity
8
0
100
AcDbLine
10
147.58750001959112
20
10.478906108316943
30
0
11
149.17500001959112
21
10.478906104158474
31
0
0
LINE
5
208
100
AcDbEntity
8
0
100
AcDbLine
10
77.587500000000006
20
41.17499999999999
30
0
11
85.500781300000014
21
41.17499999999999
31
0
0
LINE
5
209
100
AcDbEntity
8
0
100
AcDbLine
10
77.587500000000006
20
2.9999999999999982
30
0
11
85.500781200000006
21
2.9999999999999982
31
0
0
LINE
5
210
100
AcDbEntity
8
0
100
AcDbLine
10
93.239843800000003
20
39.587499999999991
30
0
11
85.500781300000014
21
39.587499999999991
31
0
0
LINE
5
211
100
AcDbEntity
8
0
100
AcDbLine
10
100.97890630000001
20
41.17499999999999
30
0
11
93.239843800000003
21
41.17499999999999
31
0
0
LINE
5
212
100
AcDbEntity
8
0
100
AcDbLine
10
100.97890630000001
20
39.587499999999991
30
0
11
100.97890630000001
21
41.17499999999999
31
0
0
LINE
5
213
100
AcDbEntity
8
0
100
AcDbLine
10
85.500781300000014
20
39.587499999999991
30
0
11
85.500781300000014
21
41.17499999999999
31
0
0
LINE
5
214
100
AcDbEntity
8
0
100
AcDbLine
10
93.239843800000003
20
41.17499999999999
30
0
11
93.239843800000003
21
39.587499999999991
31
0
0
LINE
5
215
100
AcDbEntity
8
0
100
AcDbLine
10
93.239843700000023
20
4.5875000000000021
30
0
11
93.239843700000023
21
2.9999999999999982
31
0
0
LINE
5
216
100
AcDbEntity
8
0
100
AcDbLine
10
85.500781200000006
20
4.5875000000000021
30
0
11
93.239843700000023
21
4.5875000000000021
31
0
0
LINE
5
217
100
AcDbEntity
8
0
100
AcDbLine
10
85.500781200000006
20
2.9999999999999982
30
0
11
85.500781200000006
21
4.5875000000000021
31
0
0
LINE
5
218
100
AcDbEntity
8
0
100
AcDbLine
10
100.97890620000001
20
2.9999999999999982
30
0
11
100.97890620000001
21
4.5875000000000021
31
0
0
LINE
5
219
100
AcDbEntity
8
0
100
AcDbLine
10
93.239843700000023
20
2.9999999999999982
30
0
11
100.97890620000001
21
2.9999999999999982
31
0
0
LINE
5
220
100
AcDbEntity
8
0
100
AcDbLine
10
77.587500000000006
20
10.478906199999996
30
0
11
77.587500000000006
21
2.9999999999999982
31
0
0
LINE
5
221
100
AcDbEntity
8
0
100
AcDbLine
10
77.587500000000006
20
25.957031299999997
30
0
11
77.587500000000006
21
18.2179687
31
0
0
LINE
5
222
100
AcDbEntity
8
0
100
AcDbLine
10
77.587500000000006
20
41.17499999999999
30
0
11
77.587500000000006
21
33.6960938
31
0
0
LINE
5
223
100
AcDbEntity
8
0
100
AcDbLine
10
76
20
25.957031299999997
30
0
11
76
21
33.6960938
31
0
0
LINE
5
224
100
AcDbEntity
8
0
100
AcDbLine
10
76
20
18.2179687
30
0
11
76
21
10.478906199999996
31
0
0
LINE
5
225
100
AcDbEntity
8
0
100
AcDbLine
10
77.587500000000006
20
10.478906199999996
30
0
11
76
21
10.478906199999996
31
0
0
LINE
5
226
100
AcDbEntity
8
0
100
AcDbLine
10
76
20
18.2179687
30
0
11
77.587500000000006
21
18.2179687
31
0
0
LINE
5
227
100
AcDbEntity
8
0
100
AcDbLine
10
76
20
33.6960938
30
0
11
77.587500000000006
21
33.6960938
31
0
0
LINE
5
228
100
AcDbEntity
8
0
100
AcDbLine
10
77.587500000000006
20
25.957031299999997
30
0
11
76
21
25.957031299999997
31
0
0
ENDSEC
0
SECTION
2
OBJECTS
0
DICTIONARY
5
C
100
AcDbDictionary
3
ACAD_GROUP
350
D
3
ACAD_MLINESTYLE
350
17
0
DICTIONARY
5
D
100
AcDbDictionary
0
DICTIONARY
5
1A
330
C
100
AcDbDictionary
0
DICTIONARY
5
17
100
AcDbDictionary
0
ENDSEC
0
EOF
